<svg xmlns="http://www.w3.org/2000/svg" xmlns:xlink="http://www.w3.org/1999/xlink" contentStyleType="text/css" height="788px" preserveAspectRatio="none" style="width:824px;height:788px;background:#FFFFFF;" version="1.1" viewBox="0 0 824 788" width="824px" zoomAndPan="magnify"><defs/><g><!--cluster a8aca31e164cb02bb29eda794156b6c6--><g id="cluster_a8aca31e164cb02bb29eda794156b6c6"><polygon fill="none" points="16,132.6,26,122.6,319,122.6,319,661.93,309,671.93,16,671.93,16,132.6" style="stroke:#181818;stroke-width:1.0;"/><line style="stroke:#181818;stroke-width:1.0;" x1="309" x2="319" y1="132.6" y2="122.6"/><line style="stroke:#181818;stroke-width:1.0;" x1="16" x2="309" y1="132.6" y2="132.6"/><line style="stroke:#181818;stroke-width:1.0;" x1="309" x2="309" y1="132.6" y2="671.93"/><text fill="#000000" font-family="sans-serif" font-size="14" font-weight="bold" lengthAdjust="spacing" textLength="107" x="110" y="148.5951">Redis-service</text></g><!--cluster 82daadfbe20d2f99b9d645d65ee49ad4--><g id="cluster_82daadfbe20d2f99b9d645d65ee49ad4"><polygon fill="none" points="359,140.75,369,130.75,564,130.75,564,408.64,554,418.64,359,418.64,359,140.75" style="stroke:#181818;stroke-width:1.0;"/><line style="stroke:#181818;stroke-width:1.0;" x1="554" x2="564" y1="140.75" y2="130.75"/><line style="stroke:#181818;stroke-width:1.0;" x1="359" x2="554" y1="140.75" y2="140.75"/><line style="stroke:#181818;stroke-width:1.0;" x1="554" x2="554" y1="140.75" y2="418.64"/><text fill="#000000" font-family="sans-serif" font-size="14" font-weight="bold" lengthAdjust="spacing" textLength="99" x="408" y="156.7451">Web-service</text></g><!--cluster b1f4378651ee7d41b07bd526338014ae--><g id="cluster_b1f4378651ee7d41b07bd526338014ae"><polygon fill="none" points="604,140.75,614,130.75,807,130.75,807,271.64,797,281.64,604,281.64,604,140.75" style="stroke:#181818;stroke-width:1.0;"/><line style="stroke:#181818;stroke-width:1.0;" x1="797" x2="807" y1="140.75" y2="130.75"/><line style="stroke:#181818;stroke-width:1.0;" x1="604" x2="797" y1="140.75" y2="140.75"/><line style="stroke:#181818;stroke-width:1.0;" x1="797" x2="797" y1="140.75" y2="281.64"/><text fill="#000000" font-family="sans-serif" font-size="14" font-weight="bold" lengthAdjust="spacing" textLength="99" x="652" y="156.7451">Test-service</text></g><!--entity 1feb1096d999c311256cacb7bdff89dd--><g id="elem_1feb1096d999c311256cacb7bdff89dd"><rect fill="#F1F1F1" height="95.1875" rx="2.5" ry="2.5" style="stroke:#181818;stroke-width:0.5;" width="236" x="40" y="170.6"/><rect fill="#F1F1F1" height="10" style="stroke:#181818;stroke-width:0.5;" width="15" x="256" y="175.6"/><rect fill="#F1F1F1" height="2" style="stroke:#181818;stroke-width:0.5;" width="4" x="254" y="177.6"/><rect fill="#F1F1F1" height="2" style="stroke:#181818;stroke-width:0.5;" width="4" x="254" y="181.6"/><text fill="#000000" font-family="sans-serif" font-size="14" font-weight="bold" lengthAdjust="spacing" textLength="104" x="55" y="203.5951">redis-service</text><text fill="#000000" font-family="sans-serif" font-size="14" lengthAdjust="spacing" textLength="4" x="55" y="219.892">&#160;</text><text fill="#000000" font-family="sans-serif" font-size="14" lengthAdjust="spacing" textLength="196" x="55" y="236.1889">image: redis:7.0.10-bullseye</text><text fill="#000000" font-family="sans-serif" font-size="14" lengthAdjust="spacing" textLength="4" x="55" y="252.4857">&#160;</text></g><!--entity d229867748cc52b67bca89503b391181--><g id="elem_d229867748cc52b67bca89503b391181"><rect fill="#F1F1F1" height="39.2969" rx="2.5" ry="2.5" style="stroke:#181818;stroke-width:0.5;" width="65" x="125.5" y="608.64"/><polygon fill="#F1F1F1" points="173.5,613.64,173.5,627.64,185.5,627.64,185.5,619.64,179.5,613.64,173.5,613.64" style="stroke:#181818;stroke-width:0.5;"/><line style="stroke:#181818;stroke-width:0.5;" x1="179.5" x2="179.5" y1="613.64" y2="619.64"/><line style="stroke:#181818;stroke-width:0.5;" x1="185.5" x2="179.5" y1="619.64" y2="619.64"/><text fill="#000000" font-family="sans-serif" font-size="14" lengthAdjust="spacing" textLength="35" x="135.5" y="634.6351">/data</text></g><!--entity 31af88795b722a60aa7b466e6a1a44c8--><g id="elem_31af88795b722a60aa7b466e6a1a44c8"><rect fill="#F1F1F1" height="78.8906" rx="2.5" ry="2.5" style="stroke:#181818;stroke-width:0.5;" width="138" x="383" y="178.75"/><rect fill="#F1F1F1" height="10" style="stroke:#181818;stroke-width:0.5;" width="15" x="501" y="183.75"/><rect fill="#F1F1F1" height="2" style="stroke:#181818;stroke-width:0.5;" width="4" x="499" y="185.75"/><rect fill="#F1F1F1" height="2" style="stroke:#181818;stroke-width:0.5;" width="4" x="499" y="189.75"/><text fill="#000000" font-family="sans-serif" font-size="14" font-weight="bold" lengthAdjust="spacing" textLength="98" x="398" y="211.7451">web-service</text><text fill="#000000" font-family="sans-serif" font-size="14" lengthAdjust="spacing" textLength="4" x="398" y="228.042">&#160;</text><text fill="#000000" font-family="sans-serif" font-size="14" lengthAdjust="spacing" textLength="4" x="398" y="244.3389">&#160;</text></g><!--entity 66c5abfda7189b752c456634e4c2dc2c--><g id="elem_66c5abfda7189b752c456634e4c2dc2c"><ellipse cx="452" cy="365.64" fill="#F1F1F1" rx="8" ry="8" style="stroke:#181818;stroke-width:0.5;"/><text fill="#000000" font-family="sans-serif" font-size="14" lengthAdjust="spacing" textLength="36" x="434" y="395.6351">8000</text></g><!--entity 6133301811d5ed270d55deb76e1b58b6--><g id="elem_6133301811d5ed270d55deb76e1b58b6"><rect fill="#F1F1F1" height="78.8906" rx="2.5" ry="2.5" style="stroke:#181818;stroke-width:0.5;" width="135" x="628.5" y="178.75"/><rect fill="#F1F1F1" height="10" style="stroke:#181818;stroke-width:0.5;" width="15" x="743.5" y="183.75"/><rect fill="#F1F1F1" height="2" style="stroke:#181818;stroke-width:0.5;" width="4" x="741.5" y="185.75"/><rect fill="#F1F1F1" height="2" style="stroke:#181818;stroke-width:0.5;" width="4" x="741.5" y="189.75"/><text fill="#000000" font-family="sans-serif" font-size="14" font-weight="bold" lengthAdjust="spacing" textLength="95" x="643.5" y="211.7451">test-service</text><text fill="#000000" font-family="sans-serif" font-size="14" lengthAdjust="spacing" textLength="4" x="643.5" y="228.042">&#160;</text><text fill="#000000" font-family="sans-serif" font-size="14" lengthAdjust="spacing" textLength="4" x="643.5" y="244.3389">&#160;</text></g><!--entity 0fdd2ec3d105531cbbddc83a7abe26bc--><g id="elem_0fdd2ec3d105531cbbddc83a7abe26bc"><polygon fill="#F1F1F1" points="466.5,16,476.5,6,645.5,6,645.5,58.5938,635.5,68.5938,466.5,68.5938,466.5,16" style="stroke:#181818;stroke-width:0.5;"/><line style="stroke:#181818;stroke-width:0.5;" x1="635.5" x2="645.5" y1="16" y2="6"/><line style="stroke:#181818;stroke-width:0.5;" x1="466.5" x2="635.5" y1="16" y2="16"/><line style="stroke:#181818;stroke-width:0.5;" x1="635.5" x2="635.5" y1="16" y2="68.5938"/><text fill="#000000" font-family="sans-serif" font-size="14" font-weight="bold" lengthAdjust="spacing" textLength="139" x="481.5" y="38.9951">backend-network</text><text fill="#000000" font-family="sans-serif" font-size="14" lengthAdjust="spacing" textLength="74" x="481.5" y="55.292">&#171;network&#187;</text></g><!--entity f4f6ce53a97f66296d74722e6f977e85--><g id="elem_f4f6ce53a97f66296d74722e6f977e85"><rect fill="#F1F1F1" height="39.2969" rx="2.5" ry="2.5" style="stroke:#181818;stroke-width:0.5;" width="119" x="98.5" y="742.93"/><polygon fill="#F1F1F1" points="200.5,747.93,200.5,761.93,212.5,761.93,212.5,753.93,206.5,747.93,200.5,747.93" style="stroke:#181818;stroke-width:0.5;"/><line style="stroke:#181818;stroke-width:0.5;" x1="206.5" x2="206.5" y1="747.93" y2="753.93"/><line style="stroke:#181818;stroke-width:0.5;" x1="212.5" x2="206.5" y1="753.93" y2="753.93"/><text fill="#000000" font-family="sans-serif" font-size="14" lengthAdjust="spacing" textLength="89" x="108.5" y="768.9251">redis-volume</text></g><!--entity dba3f4d0bb5aa6fcfa18da2c1f7a9775--><g id="elem_dba3f4d0bb5aa6fcfa18da2c1f7a9775"><ellipse cx="452" cy="518.64" fill="#F1F1F1" rx="8" ry="8" style="stroke:#181818;stroke-width:0.5;"/><text fill="#000000" font-family="sans-serif" font-size="14" lengthAdjust="spacing" textLength="18" x="443" y="548.6351">80</text></g><!--link d229867748cc52b67bca89503b391181 to f4f6ce53a97f66296d74722e6f977e85--><g id="link_d229867748cc52b67bca89503b391181_f4f6ce53a97f66296d74722e6f977e85"><path codeLine="29" d="M158,648.24 C158,673.39 158,717.53 158,742.66 " fill="none" id="d229867748cc52b67bca89503b391181-f4f6ce53a97f66296d74722e6f977e85" style="stroke:#181818;stroke-width:1.0;"/><text fill="#000000" font-family="sans-serif" font-size="13" lengthAdjust="spacing" textLength="14" x="159" y="708.9969">rw</text></g><!--link 1feb1096d999c311256cacb7bdff89dd to d229867748cc52b67bca89503b391181--><g id="link_1feb1096d999c311256cacb7bdff89dd_d229867748cc52b67bca89503b391181"><path codeLine="30" d="M158,266 C158,355.61 158,541.87 158,602.54 " fill="none" id="1feb1096d999c311256cacb7bdff89dd-to-d229867748cc52b67bca89503b391181" style="stroke:#181818;stroke-width:1.0;stroke-dasharray:7.0,7.0;"/><polygon fill="#181818" points="158,608.54,162,599.54,158,603.54,154,599.54,158,608.54" style="stroke:#181818;stroke-width:1.0;"/><text fill="#000000" font-family="sans-serif" font-size="13" lengthAdjust="spacing" textLength="23" x="159" y="455.7069">use</text></g><!--reverse link 0fdd2ec3d105531cbbddc83a7abe26bc to a8aca31e164cb02bb29eda794156b6c6--><g id="link_0fdd2ec3d105531cbbddc83a7abe26bc_a8aca31e164cb02bb29eda794156b6c6"><path codeLine="31" d="M460.6325,57.5024 C426.4625,67.7424 394.83,81.97 367,106.6 C346.69,124.57 332.8075,151.6425 323.945,174.5037 C322.8372,177.3614 321.8078,180.1533 320.8541,182.8533 C320.3773,184.2033 319.9194,185.5304 319.48,186.8313 C319.3702,187.1565 319.2615,187.4801 319.154,187.802 " fill="none" id="0fdd2ec3d105531cbbddc83a7abe26bc-backto-a8aca31e164cb02bb29eda794156b6c6" style="stroke:#181818;stroke-width:1.0;"/><polygon fill="#181818" points="466.38,55.78,456.6105,54.5319,461.5904,57.2153,458.9071,62.1952,466.38,55.78" style="stroke:#181818;stroke-width:1.0;"/></g><!--link 31af88795b722a60aa7b466e6a1a44c8 to 66c5abfda7189b752c456634e4c2dc2c--><g id="link_31af88795b722a60aa7b466e6a1a44c8_66c5abfda7189b752c456634e4c2dc2c"><path codeLine="32" d="M452,257.79 C452,291.62 452,338.19 452,356.64 " fill="none" id="31af88795b722a60aa7b466e6a1a44c8-66c5abfda7189b752c456634e4c2dc2c" style="stroke:#181818;stroke-width:1.0;"/></g><!--link 66c5abfda7189b752c456634e4c2dc2c to dba3f4d0bb5aa6fcfa18da2c1f7a9775--><g id="link_66c5abfda7189b752c456634e4c2dc2c_dba3f4d0bb5aa6fcfa18da2c1f7a9775"><path codeLine="33" d="M452,374.33 C452,400.17 452,483.69 452,509.77 " fill="none" id="66c5abfda7189b752c456634e4c2dc2c-dba3f4d0bb5aa6fcfa18da2c1f7a9775" style="stroke:#181818;stroke-width:1.0;"/></g><!--reverse link 0fdd2ec3d105531cbbddc83a7abe26bc to 82daadfbe20d2f99b9d645d65ee49ad4--><g id="link_0fdd2ec3d105531cbbddc83a7abe26bc_82daadfbe20d2f99b9d645d65ee49ad4"><path codeLine="34" d="M556,75.05 C556,87.6375 556,97.0013 556,113.0125 C556,117.0153 556,121.0586 556,125.1091 C556,126.1217 556,127.1348 556,128.1478 C556,128.6543 556,129.1608 556,129.6672 C556,129.9204 556,130.1735 556,130.4267 " fill="none" id="0fdd2ec3d105531cbbddc83a7abe26bc-backto-82daadfbe20d2f99b9d645d65ee49ad4" style="stroke:#181818;stroke-width:1.0;"/><polygon fill="#181818" points="556,69.05,552,78.05,556,74.05,560,78.05,556,69.05" style="stroke:#181818;stroke-width:1.0;"/></g><!--reverse link 0fdd2ec3d105531cbbddc83a7abe26bc to b1f4378651ee7d41b07bd526338014ae--><g id="link_0fdd2ec3d105531cbbddc83a7abe26bc_b1f4378651ee7d41b07bd526338014ae"><path codeLine="35" d="M651.7414,44.7183 C698.3414,52.3383 746.46,68.55 780,106.6 C784.0575,111.2038 787.4042,116.3489 790.1536,121.8325 C791.5283,124.5744 792.7537,127.4008 793.844,130.2865 " fill="none" id="0fdd2ec3d105531cbbddc83a7abe26bc-backto-b1f4378651ee7d41b07bd526338014ae" style="stroke:#181818;stroke-width:1.0;"/><polygon fill="#181818" points="645.82,43.75,654.0565,49.15,650.7545,44.5569,655.3475,41.2548,645.82,43.75" style="stroke:#181818;stroke-width:1.0;"/></g><!--SRC=[ZPFDRjim48JlUWh1frQ0NFukoI3mGnG5UcXxs3y6HcoviEMuHP5thw8ORNnIZYB4dVbcXxZR7IxxxQ_jyD0C1z5srNM4_AY3z8EEbyFniUk-3_Vtru_DPjNYgJLLn2bxiIP6Rvb8XBF7XAGEYA-pFgjiJ_r9ZqzRrlaYPcJqLYq49kE8N571L8ADGC3G_cbQFkn_7WOTnjPM9MiAI2c5lRKk0YDJ8gar5v7sMzDrnxSYNTSqspq-w5qxdz-bjLbRqzDvjplfRssQ7mqUnsr57jlL9y4HPr_YNCcGKiZCqH4aOimb6a- -M9jjytn5-gfq0vIT84gTi8suMWeLWH05eceeAE4Mo5kiEQSIAJc7O10J1G05j1W2vndeyb_Y1MTo_E5Zkyh6c5aHW2DIdLApkL2AZaC4y443Es77_wn-qTDuuvLi3JvbY5OrIR1afYIZ0- -piG7rrYjOxxsPsAr45PUCn2XA2THIp0Ipr_6DnjNiyvk0NtVpTDYTzwyMQgZ06ZsML07SjDeKfYWKQab9SxoYlkw4qDSWXYWYGkMADWiwjZLDrrDibfRMzj8lAhPtaytBgbdisdejw_LciIalyyudNJMBLU_F_MRv9IrMvWLoiHDBFynJ5WDVBFlxa1Px-AunVm40]--></g></svg>