<svg xmlns="http://www.w3.org/2000/svg" viewBox="0 0 22 22">
 <defs id="defs3051">
   <style type="text/css" id="current-color-scheme">
     .ColorScheme-Text {
       color:#4d4d4d;
     }
     </style>
 </defs>
   <path
      style="fill:currentColor;fill-opacity:1;stroke:none"
      d="m14.12662 8.00521h-.9452v-2.22935c0-.23294-.18815-.4217-.42014-.4217h-.45273l-.90589-3.0529c-.053-.17871-.21679-.30126-.40266-.30126-.18578 0-.34963.12255-.40266.30126l-.90589 3.0529h-.45273c-.23199 0-.42014.18876-.42014.4217v2.22942h-.9452c-1.03295 0-1.87338.84348-1.87338 1.88035v8.23403c0 1.03686.84035 1.88034 1.87338 1.88034h6.25324c1.03295 0 1.87338-.84348 1.87338-1.88034v-8.23403c0-1.03696-.84035-1.88042-1.87338-1.88042z"
      class="ColorScheme-Text" />
</svg> 
