<svg xmlns="http://www.w3.org/2000/svg" viewBox="0 0 22 22">
 <defs id="defs3051">
   <style type="text/css" id="current-color-scheme">
     .ColorScheme-Text {
       color:#4d4d4d;
     }
     </style>
 </defs>
   <path
      style="fill:currentColor;fill-opacity:1;stroke:none"
      d="m14.999993 6.0000017h-10.999988c-.5520048 0-1.000005.4480002-1.000005.9999916v11.0000017c0 .552005.4480002 1.000005 1.000005 1.000005h10.999988c.552005 0 1.000005-.448 1.000005-1.000005v-11.0000017c0-.5519914-.448-.9999916-1.000005-.9999916zm3.000002-3.0000017h-9.9999967c-.5520048 0-1.000005.4480002-1.000005 1.000005v.9999916h1.000005v-.5000025c0-.2759957.2240068-.4999891.5000025-.4999891h8.9999912c.27601 0 .500003.2239934.500003.4999891v9.0000049c0 .275996-.223993.500003-.500003.500003h-.499989v.999991h.999992c.552005 0 1.000005-.448 1.000005-.999991v-9.999997c0-.5520048-.448-1.000005-1.000005-1.000005z"
      class="ColorScheme-Text" />
</svg> 
