    <svg xmlns="http://www.w3.org/2000/svg" viewBox="0 0 22 22">
 <defs id="defs3051">
   <style type="text/css" id="current-color-scheme">
     .ColorScheme-Text {
       color:#4d4d4d;
     }
     </style>
 </defs>
   <path
      style="fill:currentColor;fill-opacity:1;stroke:none"
      d="m9.666667 3c-.246249 0-.444445.1981956-.444445.4444444v5.7777776h-5.7777776c-.2462222 0-.4444444.198222-.4444444.444445v2.666666c0 .246223.1982222.444445.4444444.444445h5.7777776v5.777778c0 .246248.198196.444444.444445.444444h2.666666c.246249 0 .444445-.198196.444445-.444444v-5.777778h5.777778c.246222 0 .444444-.198222.444444-.444445v-2.666666c0-.246223-.198222-.444445-.444444-.444445h-5.777778v-5.7777776c0-.2462488-.198196-.4444444-.444445-.4444444z"
      class="ColorScheme-Text" />
</svg> 
