<svg xmlns="http://www.w3.org/2000/svg" viewBox="0 0 22 22">
 <defs id="defs3051">
   <style type="text/css" id="current-color-scheme">
     .ColorScheme-Text {
       color:#4d4d4d;
     }
     </style>
 </defs>
   <path
      style="fill:currentColor;fill-opacity:1;stroke:none"
      d="m17.927299 6.98434c-.715348-1.22562-1.685765-2.19604-2.911381-2.91138-1.225871-.71535-2.564127-1.07296-4.015662-1.07296-1.4514075 0-2.7900468.35761-4.0156625 1.07296-1.2257436.71522-2.1961612 1.68563-2.9115085 2.91138-.7154752 1.22574-1.073085 2.56438-1.073085 4.01566 0 1.45141.3577376 2.78979 1.0729571 4.01566.7153474 1.22549 1.685765 2.19604 2.9115085 2.91138 1.2257436.71535 2.5642551 1.07296 4.0156624 1.07296 1.451407 0 2.790046-.35761 4.015662-1.07296 1.225616-.71522 2.196033-1.68576 2.911381-2.91138.715219-1.22574 1.072829-2.56438 1.072829-4.01566 0-1.45141-.35761-2.79005-1.072701-4.01566zm-3.156351 5.90101c.131946.13181.198047.28831.198047.46884 0 .18743-.0661.34725-.198047.47907l-.937431.93756c-.131946.13195-.291637.19792-.4792.19792-.18053 0-.337025-.066-.468715-.19792l-1.885474-1.88547-1.8854742 1.88547c-.1319462.13195-.2881847.19792-.4687156.19792-.1875629 0-.3472535-.066-.4791996-.19792l-.9375589-.93756c-.1319462-.13182-.1979192-.29164-.1979192-.47907 0-.18053.065973-.33703.1979192-.46884l1.8854741-1.88535-1.8854741-1.88547c-.1319462-.13182-.1979192-.28819-.1979192-.46872 0-.18756.065973-.34725.1979192-.4792l.9375589-.93743c.1319461-.13195.2916367-.19792.4791996-.19792.1805309 0 .3367694.066.4687156.19792l1.8854742 1.88535 1.885474-1.88535c.13169-.13195.288185-.19792.468715-.19792.187563 0 .347254.066.4792.19792l.937431.93743c.131946.13195.198047.29164.198047.4792 0 .18053-.0661.3369-.198047.46872l-1.885346 1.88547z"
      class="ColorScheme-Text" />
</svg> 
